<svg height="149" viewBox="0 0 3840 149" width="3840" xmlns="http://www.w3.org/2000/svg" xmlns:xlink="http://www.w3.org/1999/xlink"><linearGradient id="a" x1="50%" x2="50%" y1="0%" y2="100%"><stop offset="0" stop-color="#fff" stop-opacity="0"/><stop offset="1" stop-color="#fff"/></linearGradient><mask id="b" fill="#fff"><path d="m0 0h3840v149h-3840z" fill="#fff" fill-rule="evenodd"/></mask><mask id="c" fill="#fff"><path d="m0 0h1563v2160h-1563z" fill="#fff" fill-rule="evenodd"/></mask><mask id="d" fill="#fff"><path d="m0 0h1563v2160h-1563z" fill="#fff" fill-rule="evenodd"/></mask><mask id="e" fill="#fff"><path d="m0 0h3840v149h-3840z" fill="#fff" fill-rule="evenodd"/></mask><mask id="f" fill="#fff"><path d="m0 0h1563v2160h-1563z" fill="#fff" fill-rule="evenodd"/></mask><mask id="g" fill="#fff"><path d="m0 0h1563v2160h-1563z" fill="#fff" fill-rule="evenodd"/></mask><g fill="none" fill-rule="evenodd"><g mask="url(#b)"><g mask="url(#c)" stroke="url(#a)"><g transform="translate(-3 -1268)"><path d="m0 2102.60102 1566.3669-1259.60102"/><path d="m0 2226.60102 1566.3669-1259.60102"/><path d="m0 2114.60102 1566.3669-1259.60102"/><path d="m0 2238.60102 1566.3669-1259.60102"/><path d="m0 2127.60102 1566.3669-1259.60102"/><path d="m0 2251.60102 1566.3669-1259.60102"/><path d="m0 2139.60102 1566.3669-1259.60102"/><path d="m0 2263.60102 1566.3669-1259.60102"/><path d="m0 2152.60102 1566.3669-1259.60102"/><path d="m0 2275.60102 1566.3669-1259.60102"/><path d="m0 2164.60102 1566.3669-1259.60102"/><path d="m0 2288.60102 1566.3669-1259.60102"/><path d="m0 2176.60102 1566.3669-1259.60102"/><path d="m0 2300.60102 1566.3669-1259.60102"/><path d="m0 2189.60102 1566.3669-1259.60102"/><path d="m0 2313.60102 1566.3669-1259.60102"/><path d="m0 2201.60102 1566.3669-1259.60102"/><path d="m0 2325.60102 1566.3669-1259.60102"/><path d="m0 2214.60102 1566.3669-1259.60102"/><path d="m0 2337.60102 1566.3669-1259.60102"/><path d="m0 2598.60102 1566.3669-1259.60102"/><path d="m0 2610.60102 1566.3669-1259.60102"/><path d="m0 2623.60102 1566.3669-1259.60102"/><path d="m0 2635.60102 1566.3669-1259.60102"/><path d="m0 2647.60102 1566.3669-1259.60102"/><path d="m0 2660.60102 1566.3669-1259.60102"/><path d="m0 2672.60102 1566.3669-1259.60102"/><path d="m0 2350.60102 1566.3669-1259.60102"/><path d="m0 2474.60102 1566.3669-1259.60102"/><path d="m0 2362.60102 1566.3669-1259.60102"/><path d="m0 2486.60102 1566.3669-1259.60102"/><path d="m0 2375.60102 1566.3669-1259.60102"/><path d="m0 2499.60102 1566.3669-1259.60102"/><path d="m0 2387.60102 1566.3669-1259.60102"/><path d="m0 2511.60102 1566.3669-1259.60102"/><path d="m0 2399.60102 1566.3669-1259.60102"/><path d="m0 2523.60102 1566.3669-1259.60102"/><path d="m0 2412.60102 1566.3669-1259.60102"/><path d="m0 2536.60102 1566.3669-1259.60102"/><path d="m0 2424.60102 1566.3669-1259.60102"/><path d="m0 2548.60102 1566.3669-1259.60102"/><path d="m0 2437.60102 1566.3669-1259.60102"/><path d="m0 2561.60102 1566.3669-1259.60102"/><path d="m0 2449.60102 1566.3669-1259.60102"/><path d="m0 2573.60102 1566.3669-1259.60102"/><path d="m0 2461.60102 1566.3669-1259.60102"/><path d="m0 2585.60102 1566.3669-1259.60102"/><path d="m0 1606.60102 1566.3669-1259.60102"/><path d="m0 1730.60102 1566.3669-1259.60102"/><path d="m0 1618.60102 1566.3669-1259.60102"/><path d="m0 1742.60102 1566.3669-1259.60102"/><path d="m0 1631.60102 1566.3669-1259.60102"/><path d="m0 1755.60102 1566.3669-1259.60102"/><path d="m0 1643.60102 1566.3669-1259.60102"/><path d="m0 1767.60102 1566.3669-1259.60102"/><path d="m0 1656.60102 1566.3669-1259.60102"/><path d="m0 1780.60102 1566.3669-1259.60102"/><path d="m0 1668.60102 1566.3669-1259.60102"/><path d="m0 1792.60102 1566.3669-1259.60102"/><path d="m0 1680.60102 1566.3669-1259.60102"/><path d="m0 1804.60102 1566.3669-1259.60102"/><path d="m0 1693.60102 1566.3669-1259.60102"/><path d="m0 1817.60102 1566.3669-1259.60102"/><path d="m0 1705.60102 1566.3669-1259.60102"/><path d="m0 1829.60102 1566.3669-1259.60102"/><path d="m0 1718.60102 1566.3669-1259.60102"/><path d="m0 1842.60102 1566.3669-1259.60102"/><path d="m0 1482.60102 1566.3669-1259.60102"/><path d="m0 1495.60102 1566.3669-1259.60102"/><path d="m0 1507.60102 1566.3669-1259.60102"/><path d="m0 1519.60102 1566.3669-1259.60102"/><path d="m0 1532.60102 1566.3669-1259.60102"/><path d="m0 1544.60102 1566.3669-1259.60102"/><path d="m0 1557.60102 1566.3669-1259.60102"/><path d="m0 1569.60102 1566.3669-1259.60102"/><path d="m0 1457.60102 1566.3669-1259.60102"/><path d="m0 1581.60102 1566.3669-1259.60102"/><path d="m0 1470.60102 1566.3669-1259.60102"/><path d="m0 1594.60102 1566.3669-1259.60102"/><path d="m0 1383.60102 1566.3669-1259.60102"/><path d="m0 1395.60102 1566.3669-1259.60102"/><path d="m0 1408.60102 1566.3669-1259.60102"/><path d="m0 1420.60102 1566.3669-1259.60102"/><path d="m0 1433.60102 1566.3669-1259.60102"/><path d="m0 1445.60102 1566.3669-1259.60102"/><path d="m0 1271.60102 1566.3669-1259.60102"/><path d="m0 1284.60102 1566.3669-1259.60102"/><path d="m0 1296.60102 1566.3669-1259.60102"/><path d="m0 1309.60102 1566.3669-1259.60102"/><path d="m0 1321.60102 1566.3669-1259.60102"/><path d="m0 1333.60102 1566.3669-1259.60102"/><path d="m0 1346.60102 1566.3669-1259.60102"/><path d="m0 1358.60102 1566.3669-1259.60102"/><path d="m0 1371.60102 1566.3669-1259.60102"/><path d="m0 1854.60102 1566.3669-1259.60102"/><path d="m0 1978.60102 1566.3669-1259.60102"/><path d="m0 1866.60102 1566.3669-1259.60102"/><path d="m0 1990.60102 1566.3669-1259.60102"/><path d="m0 1879.60102 1566.3669-1259.60102"/><path d="m0 2003.60102 1566.3669-1259.60102"/><path d="m0 1891.60102 1566.3669-1259.60102"/><path d="m0 2015.60102 1566.3669-1259.60102"/><path d="m0 1904.60102 1566.3669-1259.60102"/><path d="m0 2028.60102 1566.3669-1259.60102"/><path d="m0 1916.60102 1566.3669-1259.60102"/><path d="m0 2040.60102 1566.3669-1259.60102"/><path d="m0 1928.60102 1566.3669-1259.60102"/><path d="m0 2052.60102 1566.3669-1259.60102"/><path d="m0 1941.60102 1566.3669-1259.60102"/><path d="m0 2065.60102 1566.3669-1259.60102"/><path d="m0 1953.60102 1566.3669-1259.60102"/><path d="m0 2077.60102 1566.3669-1259.60102"/><path d="m0 1966.60102 1566.3669-1259.60102"/><path d="m0 2090.60102 1566.3669-1259.60102"/></g></g></g><g mask="url(#b)"><g fill="none" fill-rule="evenodd" mask="url(#d)" transform="matrix(-1 0 0 1 3840 0)"><g stroke="url(#a)" transform="translate(-3 -1268)"><path d="m0 2102.60102 1566.3669-1259.60102"/><path d="m0 2226.60102 1566.3669-1259.60102"/><path d="m0 2114.60102 1566.3669-1259.60102"/><path d="m0 2238.60102 1566.3669-1259.60102"/><path d="m0 2127.60102 1566.3669-1259.60102"/><path d="m0 2251.60102 1566.3669-1259.60102"/><path d="m0 2139.60102 1566.3669-1259.60102"/><path d="m0 2263.60102 1566.3669-1259.60102"/><path d="m0 2152.60102 1566.3669-1259.60102"/><path d="m0 2275.60102 1566.3669-1259.60102"/><path d="m0 2164.60102 1566.3669-1259.60102"/><path d="m0 2288.60102 1566.3669-1259.60102"/><path d="m0 2176.60102 1566.3669-1259.60102"/><path d="m0 2300.60102 1566.3669-1259.60102"/><path d="m0 2189.60102 1566.3669-1259.60102"/><path d="m0 2313.60102 1566.3669-1259.60102"/><path d="m0 2201.60102 1566.3669-1259.60102"/><path d="m0 2325.60102 1566.3669-1259.60102"/><path d="m0 2214.60102 1566.3669-1259.60102"/><path d="m0 2337.60102 1566.3669-1259.60102"/><path d="m0 2598.60102 1566.3669-1259.60102"/><path d="m0 2610.60102 1566.3669-1259.60102"/><path d="m0 2623.60102 1566.3669-1259.60102"/><path d="m0 2635.60102 1566.3669-1259.60102"/><path d="m0 2647.60102 1566.3669-1259.60102"/><path d="m0 2660.60102 1566.3669-1259.60102"/><path d="m0 2672.60102 1566.3669-1259.60102"/><path d="m0 2350.60102 1566.3669-1259.60102"/><path d="m0 2474.60102 1566.3669-1259.60102"/><path d="m0 2362.60102 1566.3669-1259.60102"/><path d="m0 2486.60102 1566.3669-1259.60102"/><path d="m0 2375.60102 1566.3669-1259.60102"/><path d="m0 2499.60102 1566.3669-1259.60102"/><path d="m0 2387.60102 1566.3669-1259.60102"/><path d="m0 2511.60102 1566.3669-1259.60102"/><path d="m0 2399.60102 1566.3669-1259.60102"/><path d="m0 2523.60102 1566.3669-1259.60102"/><path d="m0 2412.60102 1566.3669-1259.60102"/><path d="m0 2536.60102 1566.3669-1259.60102"/><path d="m0 2424.60102 1566.3669-1259.60102"/><path d="m0 2548.60102 1566.3669-1259.60102"/><path d="m0 2437.60102 1566.3669-1259.60102"/><path d="m0 2561.60102 1566.3669-1259.60102"/><path d="m0 2449.60102 1566.3669-1259.60102"/><path d="m0 2573.60102 1566.3669-1259.60102"/><path d="m0 2461.60102 1566.3669-1259.60102"/><path d="m0 2585.60102 1566.3669-1259.60102"/><path d="m0 1606.60102 1566.3669-1259.60102"/><path d="m0 1730.60102 1566.3669-1259.60102"/><path d="m0 1618.60102 1566.3669-1259.60102"/><path d="m0 1742.60102 1566.3669-1259.60102"/><path d="m0 1631.60102 1566.3669-1259.60102"/><path d="m0 1755.60102 1566.3669-1259.60102"/><path d="m0 1643.60102 1566.3669-1259.60102"/><path d="m0 1767.60102 1566.3669-1259.60102"/><path d="m0 1656.60102 1566.3669-1259.60102"/><path d="m0 1780.60102 1566.3669-1259.60102"/><path d="m0 1668.60102 1566.3669-1259.60102"/><path d="m0 1792.60102 1566.3669-1259.60102"/><path d="m0 1680.60102 1566.3669-1259.60102"/><path d="m0 1804.60102 1566.3669-1259.60102"/><path d="m0 1693.60102 1566.3669-1259.60102"/><path d="m0 1817.60102 1566.3669-1259.60102"/><path d="m0 1705.60102 1566.3669-1259.60102"/><path d="m0 1829.60102 1566.3669-1259.60102"/><path d="m0 1718.60102 1566.3669-1259.60102"/><path d="m0 1842.60102 1566.3669-1259.60102"/><path d="m0 1482.60102 1566.3669-1259.60102"/><path d="m0 1495.60102 1566.3669-1259.60102"/><path d="m0 1507.60102 1566.3669-1259.60102"/><path d="m0 1519.60102 1566.3669-1259.60102"/><path d="m0 1532.60102 1566.3669-1259.60102"/><path d="m0 1544.60102 1566.3669-1259.60102"/><path d="m0 1557.60102 1566.3669-1259.60102"/><path d="m0 1569.60102 1566.3669-1259.60102"/><path d="m0 1457.60102 1566.3669-1259.60102"/><path d="m0 1581.60102 1566.3669-1259.60102"/><path d="m0 1470.60102 1566.3669-1259.60102"/><path d="m0 1594.60102 1566.3669-1259.60102"/><path d="m0 1383.60102 1566.3669-1259.60102"/><path d="m0 1395.60102 1566.3669-1259.60102"/><path d="m0 1408.60102 1566.3669-1259.60102"/><path d="m0 1420.60102 1566.3669-1259.60102"/><path d="m0 1433.60102 1566.3669-1259.60102"/><path d="m0 1445.60102 1566.3669-1259.60102"/><path d="m0 1271.60102 1566.3669-1259.60102"/><path d="m0 1284.60102 1566.3669-1259.60102"/><path d="m0 1296.60102 1566.3669-1259.60102"/><path d="m0 1309.60102 1566.3669-1259.60102"/><path d="m0 1321.60102 1566.3669-1259.60102"/><path d="m0 1333.60102 1566.3669-1259.60102"/><path d="m0 1346.60102 1566.3669-1259.60102"/><path d="m0 1358.60102 1566.3669-1259.60102"/><path d="m0 1371.60102 1566.3669-1259.60102"/><path d="m0 1854.60102 1566.3669-1259.60102"/><path d="m0 1978.60102 1566.3669-1259.60102"/><path d="m0 1866.60102 1566.3669-1259.60102"/><path d="m0 1990.60102 1566.3669-1259.60102"/><path d="m0 1879.60102 1566.3669-1259.60102"/><path d="m0 2003.60102 1566.3669-1259.60102"/><path d="m0 1891.60102 1566.3669-1259.60102"/><path d="m0 2015.60102 1566.3669-1259.60102"/><path d="m0 1904.60102 1566.3669-1259.60102"/><path d="m0 2028.60102 1566.3669-1259.60102"/><path d="m0 1916.60102 1566.3669-1259.60102"/><path d="m0 2040.60102 1566.3669-1259.60102"/><path d="m0 1928.60102 1566.3669-1259.60102"/><path d="m0 2052.60102 1566.3669-1259.60102"/><path d="m0 1941.60102 1566.3669-1259.60102"/><path d="m0 2065.60102 1566.3669-1259.60102"/><path d="m0 1953.60102 1566.3669-1259.60102"/><path d="m0 2077.60102 1566.3669-1259.60102"/><path d="m0 1966.60102 1566.3669-1259.60102"/><path d="m0 2090.60102 1566.3669-1259.60102"/></g></g></g><g mask="url(#e)"><g mask="url(#f)" stroke="url(#a)"><g transform="translate(-3 -1268)"><path d="m0 2102.60102 1566.3669-1259.60102"/><path d="m0 2226.60102 1566.3669-1259.60102"/><path d="m0 2114.60102 1566.3669-1259.60102"/><path d="m0 2238.60102 1566.3669-1259.60102"/><path d="m0 2127.60102 1566.3669-1259.60102"/><path d="m0 2251.60102 1566.3669-1259.60102"/><path d="m0 2139.60102 1566.3669-1259.60102"/><path d="m0 2263.60102 1566.3669-1259.60102"/><path d="m0 2152.60102 1566.3669-1259.60102"/><path d="m0 2275.60102 1566.3669-1259.60102"/><path d="m0 2164.60102 1566.3669-1259.60102"/><path d="m0 2288.60102 1566.3669-1259.60102"/><path d="m0 2176.60102 1566.3669-1259.60102"/><path d="m0 2300.60102 1566.3669-1259.60102"/><path d="m0 2189.60102 1566.3669-1259.60102"/><path d="m0 2313.60102 1566.3669-1259.60102"/><path d="m0 2201.60102 1566.3669-1259.60102"/><path d="m0 2325.60102 1566.3669-1259.60102"/><path d="m0 2214.60102 1566.3669-1259.60102"/><path d="m0 2337.60102 1566.3669-1259.60102"/><path d="m0 2598.60102 1566.3669-1259.60102"/><path d="m0 2610.60102 1566.3669-1259.60102"/><path d="m0 2623.60102 1566.3669-1259.60102"/><path d="m0 2635.60102 1566.3669-1259.60102"/><path d="m0 2647.60102 1566.3669-1259.60102"/><path d="m0 2660.60102 1566.3669-1259.60102"/><path d="m0 2672.60102 1566.3669-1259.60102"/><path d="m0 2350.60102 1566.3669-1259.60102"/><path d="m0 2474.60102 1566.3669-1259.60102"/><path d="m0 2362.60102 1566.3669-1259.60102"/><path d="m0 2486.60102 1566.3669-1259.60102"/><path d="m0 2375.60102 1566.3669-1259.60102"/><path d="m0 2499.60102 1566.3669-1259.60102"/><path d="m0 2387.60102 1566.3669-1259.60102"/><path d="m0 2511.60102 1566.3669-1259.60102"/><path d="m0 2399.60102 1566.3669-1259.60102"/><path d="m0 2523.60102 1566.3669-1259.60102"/><path d="m0 2412.60102 1566.3669-1259.60102"/><path d="m0 2536.60102 1566.3669-1259.60102"/><path d="m0 2424.60102 1566.3669-1259.60102"/><path d="m0 2548.60102 1566.3669-1259.60102"/><path d="m0 2437.60102 1566.3669-1259.60102"/><path d="m0 2561.60102 1566.3669-1259.60102"/><path d="m0 2449.60102 1566.3669-1259.60102"/><path d="m0 2573.60102 1566.3669-1259.60102"/><path d="m0 2461.60102 1566.3669-1259.60102"/><path d="m0 2585.60102 1566.3669-1259.60102"/><path d="m0 1606.60102 1566.3669-1259.60102"/><path d="m0 1730.60102 1566.3669-1259.60102"/><path d="m0 1618.60102 1566.3669-1259.60102"/><path d="m0 1742.60102 1566.3669-1259.60102"/><path d="m0 1631.60102 1566.3669-1259.60102"/><path d="m0 1755.60102 1566.3669-1259.60102"/><path d="m0 1643.60102 1566.3669-1259.60102"/><path d="m0 1767.60102 1566.3669-1259.60102"/><path d="m0 1656.60102 1566.3669-1259.60102"/><path d="m0 1780.60102 1566.3669-1259.60102"/><path d="m0 1668.60102 1566.3669-1259.60102"/><path d="m0 1792.60102 1566.3669-1259.60102"/><path d="m0 1680.60102 1566.3669-1259.60102"/><path d="m0 1804.60102 1566.3669-1259.60102"/><path d="m0 1693.60102 1566.3669-1259.60102"/><path d="m0 1817.60102 1566.3669-1259.60102"/><path d="m0 1705.60102 1566.3669-1259.60102"/><path d="m0 1829.60102 1566.3669-1259.60102"/><path d="m0 1718.60102 1566.3669-1259.60102"/><path d="m0 1842.60102 1566.3669-1259.60102"/><path d="m0 1482.60102 1566.3669-1259.60102"/><path d="m0 1495.60102 1566.3669-1259.60102"/><path d="m0 1507.60102 1566.3669-1259.60102"/><path d="m0 1519.60102 1566.3669-1259.60102"/><path d="m0 1532.60102 1566.3669-1259.60102"/><path d="m0 1544.60102 1566.3669-1259.60102"/><path d="m0 1557.60102 1566.3669-1259.60102"/><path d="m0 1569.60102 1566.3669-1259.60102"/><path d="m0 1457.60102 1566.3669-1259.60102"/><path d="m0 1581.60102 1566.3669-1259.60102"/><path d="m0 1470.60102 1566.3669-1259.60102"/><path d="m0 1594.60102 1566.3669-1259.60102"/><path d="m0 1383.60102 1566.3669-1259.60102"/><path d="m0 1395.60102 1566.3669-1259.60102"/><path d="m0 1408.60102 1566.3669-1259.60102"/><path d="m0 1420.60102 1566.3669-1259.60102"/><path d="m0 1433.60102 1566.3669-1259.60102"/><path d="m0 1445.60102 1566.3669-1259.60102"/><path d="m0 1271.60102 1566.3669-1259.60102"/><path d="m0 1284.60102 1566.3669-1259.60102"/><path d="m0 1296.60102 1566.3669-1259.60102"/><path d="m0 1309.60102 1566.3669-1259.60102"/><path d="m0 1321.60102 1566.3669-1259.60102"/><path d="m0 1333.60102 1566.3669-1259.60102"/><path d="m0 1346.60102 1566.3669-1259.60102"/><path d="m0 1358.60102 1566.3669-1259.60102"/><path d="m0 1371.60102 1566.3669-1259.60102"/><path d="m0 1854.60102 1566.3669-1259.60102"/><path d="m0 1978.60102 1566.3669-1259.60102"/><path d="m0 1866.60102 1566.3669-1259.60102"/><path d="m0 1990.60102 1566.3669-1259.60102"/><path d="m0 1879.60102 1566.3669-1259.60102"/><path d="m0 2003.60102 1566.3669-1259.60102"/><path d="m0 1891.60102 1566.3669-1259.60102"/><path d="m0 2015.60102 1566.3669-1259.60102"/><path d="m0 1904.60102 1566.3669-1259.60102"/><path d="m0 2028.60102 1566.3669-1259.60102"/><path d="m0 1916.60102 1566.3669-1259.60102"/><path d="m0 2040.60102 1566.3669-1259.60102"/><path d="m0 1928.60102 1566.3669-1259.60102"/><path d="m0 2052.60102 1566.3669-1259.60102"/><path d="m0 1941.60102 1566.3669-1259.60102"/><path d="m0 2065.60102 1566.3669-1259.60102"/><path d="m0 1953.60102 1566.3669-1259.60102"/><path d="m0 2077.60102 1566.3669-1259.60102"/><path d="m0 1966.60102 1566.3669-1259.60102"/><path d="m0 2090.60102 1566.3669-1259.60102"/></g></g></g><g mask="url(#e)"><g fill="none" fill-rule="evenodd" mask="url(#g)" transform="matrix(-1 0 0 1 3840 0)"><g stroke="url(#a)" transform="translate(-3 -1268)"><path d="m0 2102.60102 1566.3669-1259.60102"/><path d="m0 2226.60102 1566.3669-1259.60102"/><path d="m0 2114.60102 1566.3669-1259.60102"/><path d="m0 2238.60102 1566.3669-1259.60102"/><path d="m0 2127.60102 1566.3669-1259.60102"/><path d="m0 2251.60102 1566.3669-1259.60102"/><path d="m0 2139.60102 1566.3669-1259.60102"/><path d="m0 2263.60102 1566.3669-1259.60102"/><path d="m0 2152.60102 1566.3669-1259.60102"/><path d="m0 2275.60102 1566.3669-1259.60102"/><path d="m0 2164.60102 1566.3669-1259.60102"/><path d="m0 2288.60102 1566.3669-1259.60102"/><path d="m0 2176.60102 1566.3669-1259.60102"/><path d="m0 2300.60102 1566.3669-1259.60102"/><path d="m0 2189.60102 1566.3669-1259.60102"/><path d="m0 2313.60102 1566.3669-1259.60102"/><path d="m0 2201.60102 1566.3669-1259.60102"/><path d="m0 2325.60102 1566.3669-1259.60102"/><path d="m0 2214.60102 1566.3669-1259.60102"/><path d="m0 2337.60102 1566.3669-1259.60102"/><path d="m0 2598.60102 1566.3669-1259.60102"/><path d="m0 2610.60102 1566.3669-1259.60102"/><path d="m0 2623.60102 1566.3669-1259.60102"/><path d="m0 2635.60102 1566.3669-1259.60102"/><path d="m0 2647.60102 1566.3669-1259.60102"/><path d="m0 2660.60102 1566.3669-1259.60102"/><path d="m0 2672.60102 1566.3669-1259.60102"/><path d="m0 2350.60102 1566.3669-1259.60102"/><path d="m0 2474.60102 1566.3669-1259.60102"/><path d="m0 2362.60102 1566.3669-1259.60102"/><path d="m0 2486.60102 1566.3669-1259.60102"/><path d="m0 2375.60102 1566.3669-1259.60102"/><path d="m0 2499.60102 1566.3669-1259.60102"/><path d="m0 2387.60102 1566.3669-1259.60102"/><path d="m0 2511.60102 1566.3669-1259.60102"/><path d="m0 2399.60102 1566.3669-1259.60102"/><path d="m0 2523.60102 1566.3669-1259.60102"/><path d="m0 2412.60102 1566.3669-1259.60102"/><path d="m0 2536.60102 1566.3669-1259.60102"/><path d="m0 2424.60102 1566.3669-1259.60102"/><path d="m0 2548.60102 1566.3669-1259.60102"/><path d="m0 2437.60102 1566.3669-1259.60102"/><path d="m0 2561.60102 1566.3669-1259.60102"/><path d="m0 2449.60102 1566.3669-1259.60102"/><path d="m0 2573.60102 1566.3669-1259.60102"/><path d="m0 2461.60102 1566.3669-1259.60102"/><path d="m0 2585.60102 1566.3669-1259.60102"/><path d="m0 1606.60102 1566.3669-1259.60102"/><path d="m0 1730.60102 1566.3669-1259.60102"/><path d="m0 1618.60102 1566.3669-1259.60102"/><path d="m0 1742.60102 1566.3669-1259.60102"/><path d="m0 1631.60102 1566.3669-1259.60102"/><path d="m0 1755.60102 1566.3669-1259.60102"/><path d="m0 1643.60102 1566.3669-1259.60102"/><path d="m0 1767.60102 1566.3669-1259.60102"/><path d="m0 1656.60102 1566.3669-1259.60102"/><path d="m0 1780.60102 1566.3669-1259.60102"/><path d="m0 1668.60102 1566.3669-1259.60102"/><path d="m0 1792.60102 1566.3669-1259.60102"/><path d="m0 1680.60102 1566.3669-1259.60102"/><path d="m0 1804.60102 1566.3669-1259.60102"/><path d="m0 1693.60102 1566.3669-1259.60102"/><path d="m0 1817.60102 1566.3669-1259.60102"/><path d="m0 1705.60102 1566.3669-1259.60102"/><path d="m0 1829.60102 1566.3669-1259.60102"/><path d="m0 1718.60102 1566.3669-1259.60102"/><path d="m0 1842.60102 1566.3669-1259.60102"/><path d="m0 1482.60102 1566.3669-1259.60102"/><path d="m0 1495.60102 1566.3669-1259.60102"/><path d="m0 1507.60102 1566.3669-1259.60102"/><path d="m0 1519.60102 1566.3669-1259.60102"/><path d="m0 1532.60102 1566.3669-1259.60102"/><path d="m0 1544.60102 1566.3669-1259.60102"/><path d="m0 1557.60102 1566.3669-1259.60102"/><path d="m0 1569.60102 1566.3669-1259.60102"/><path d="m0 1457.60102 1566.3669-1259.60102"/><path d="m0 1581.60102 1566.3669-1259.60102"/><path d="m0 1470.60102 1566.3669-1259.60102"/><path d="m0 1594.60102 1566.3669-1259.60102"/><path d="m0 1383.60102 1566.3669-1259.60102"/><path d="m0 1395.60102 1566.3669-1259.60102"/><path d="m0 1408.60102 1566.3669-1259.60102"/><path d="m0 1420.60102 1566.3669-1259.60102"/><path d="m0 1433.60102 1566.3669-1259.60102"/><path d="m0 1445.60102 1566.3669-1259.60102"/><path d="m0 1271.60102 1566.3669-1259.60102"/><path d="m0 1284.60102 1566.3669-1259.60102"/><path d="m0 1296.60102 1566.3669-1259.60102"/><path d="m0 1309.60102 1566.3669-1259.60102"/><path d="m0 1321.60102 1566.3669-1259.60102"/><path d="m0 1333.60102 1566.3669-1259.60102"/><path d="m0 1346.60102 1566.3669-1259.60102"/><path d="m0 1358.60102 1566.3669-1259.60102"/><path d="m0 1371.60102 1566.3669-1259.60102"/><path d="m0 1854.60102 1566.3669-1259.60102"/><path d="m0 1978.60102 1566.3669-1259.60102"/><path d="m0 1866.60102 1566.3669-1259.60102"/><path d="m0 1990.60102 1566.3669-1259.60102"/><path d="m0 1879.60102 1566.3669-1259.60102"/><path d="m0 2003.60102 1566.3669-1259.60102"/><path d="m0 1891.60102 1566.3669-1259.60102"/><path d="m0 2015.60102 1566.3669-1259.60102"/><path d="m0 1904.60102 1566.3669-1259.60102"/><path d="m0 2028.60102 1566.3669-1259.60102"/><path d="m0 1916.60102 1566.3669-1259.60102"/><path d="m0 2040.60102 1566.3669-1259.60102"/><path d="m0 1928.60102 1566.3669-1259.60102"/><path d="m0 2052.60102 1566.3669-1259.60102"/><path d="m0 1941.60102 1566.3669-1259.60102"/><path d="m0 2065.60102 1566.3669-1259.60102"/><path d="m0 1953.60102 1566.3669-1259.60102"/><path d="m0 2077.60102 1566.3669-1259.60102"/><path d="m0 1966.60102 1566.3669-1259.60102"/><path d="m0 2090.60102 1566.3669-1259.60102"/></g></g></g></g></svg>